<?xml version="1.0" encoding="UTF-8" standalone="no"?>
<!-- Created with Inkscape (http://www.inkscape.org/) -->

<svg
   width="34mm"
   height="34mm"
   viewBox="0 0 34 34"
   version="1.1"
   id="svg79426"
   xmlns="http://www.w3.org/2000/svg"
   xmlns:svg="http://www.w3.org/2000/svg">
  <defs
     id="defs79423" />
  <g
     id="layer1">
    <g
       aria-label=" ○━━┓
┃ c ┃
┗━▶"
       id="text81236"
       style="font-size:10.5833px;line-height:1.25;stroke-width:0.264583"
       transform="translate(1.0583333)">
      <path
         d="m 9.8557344,5.4752946 q -0.6349979,0 -1.1641629,-0.317499 -0.529165,-0.317499 -0.846664,-0.846664 -0.317499,-0.529165 -0.317499,-1.1641629 0,-0.6455813 0.317499,-1.164163 0.317499,-0.529165 0.846664,-0.846664 0.529165,-0.31749897 1.1641629,-0.31749897 0.6455816,0 1.1641626,0.31749897 0.529165,0.317499 0.846664,0.846664 0.317499,0.5185817 0.317499,1.164163 0,0.6349979 -0.317499,1.1641629 -0.317499,0.529165 -0.846664,0.846664 -0.518581,0.317499 -1.1641626,0.317499 z m 0,-0.4444986 q 0.5185816,0 0.9419136,-0.2539992 0.433915,-0.2539992 0.687915,-0.6773312 0.253999,-0.4339153 0.253999,-0.9524969 0,-0.5185817 -0.253999,-0.9419137 -0.254,-0.4339153 -0.687915,-0.6879145 -0.423332,-0.2539992 -0.9419136,-0.2539992 -0.5185816,0 -0.9524969,0.2539992 -0.423332,0.2539992 -0.6773312,0.6879145 -0.2539992,0.423332 -0.2539992,0.9419137 0,0.5185816 0.2539992,0.9524969 0.2539992,0.423332 0.6773312,0.6773312 0.4339153,0.2539992 0.9524969,0.2539992 z"
         style="font-family:'Noto Sans Mono';-inkscape-font-specification:'Noto Sans Mono, Normal'"
         id="path101728" />
      <path
         d="M 12.967208,3.1893018 V 1.6864733 h 6.47698 v 1.5028285 z"
         style="font-family:'Noto Sans Mono';-inkscape-font-specification:'Noto Sans Mono, Normal'"
         id="path101730" />
      <path
         d="M 19.317172,3.1893018 V 1.6864733 h 6.476979 v 1.5028285 z"
         style="font-family:'Noto Sans Mono';-inkscape-font-specification:'Noto Sans Mono, Normal'"
         id="path101732" />
      <path
         d="M 29.65704,8.9254503 H 28.154211 V 3.1893018 H 25.667136 V 1.6864733 h 3.989904 z"
         style="font-family:'Noto Sans Mono';-inkscape-font-specification:'Noto Sans Mono, Normal'"
         id="path101734" />
      <path
         d="M 2.7543565,9.4557747 H 4.2571851 V 22.420317 H 2.7543565 Z"
         style="font-family:'Noto Sans Mono';-inkscape-font-specification:'Noto Sans Mono, Normal'"
         id="path101736" />
      <path
         d="m 16.607864,19.922658 q -1.24883,0 -1.968494,-0.677331 -0.709081,-0.687915 -0.709081,-2.222493 0,-1.09008 0.349249,-1.746244 0.359832,-0.656165 0.984246,-0.941914 0.634998,-0.296333 1.439329,-0.296333 0.497415,0 0.899581,0.105833 0.412748,0.09525 0.772581,0.28575 l -0.28575,0.77258 q -0.338665,-0.179916 -0.656164,-0.253999 -0.317499,-0.08467 -0.687915,-0.08467 -0.973663,0 -1.407578,0.539748 -0.433916,0.529165 -0.433916,1.598078 0,1.132413 0.455082,1.619245 0.455082,0.486832 1.354662,0.486832 0.465666,0 0.878414,-0.09525 0.412749,-0.105833 0.719665,-0.243416 v 0.836081 q -0.317499,0.148166 -0.783164,0.232833 -0.465666,0.08467 -0.920747,0.08467 z"
         style="font-family:'Noto Sans Mono';-inkscape-font-specification:'Noto Sans Mono, Normal'"
         id="path101738" />
      <path
         d="M 28.154211,9.4557747 H 29.65704 V 22.420317 h -1.502829 z"
         style="font-family:'Noto Sans Mono';-inkscape-font-specification:'Noto Sans Mono, Normal'"
         id="path101740" />
      <path
         d="m 2.7543565,22.950641 h 1.5028286 v 5.725565 h 2.4870754 v 1.502829 h -3.989904 z"
         style="font-family:'Noto Sans Mono';-inkscape-font-specification:'Noto Sans Mono, Normal'"
         id="path101742" />
      <path
         d="m 6.6172448,30.179035 v -1.502829 h 6.4769792 v 1.502829 z"
         style="font-family:'Noto Sans Mono';-inkscape-font-specification:'Noto Sans Mono, Normal'"
         id="path101744" />
      <path
         d="m 16.290365,33.311692 v -6.191231 l 6.19123,3.100907 z"
         style="font-family:'Noto Sans Mono';-inkscape-font-specification:'Noto Sans Mono, Normal'"
         id="path101746" />
    </g>
  </g>
</svg>
