<?xml version="1.0" encoding="UTF-8" standalone="no"?>
<!-- Created with Inkscape (http://www.inkscape.org/) -->

<svg
   width="30.5mm"
   height="32.25mm"
   viewBox="0 0 30.5 32.25"
   version="1.1"
   id="svg23"
   sodipodi:docname="lwcli_logo.svg"
   inkscape:version="1.1.2 (0a00cf5339, 2022-02-04)"
   xmlns:inkscape="http://www.inkscape.org/namespaces/inkscape"
   xmlns:sodipodi="http://sodipodi.sourceforge.net/DTD/sodipodi-0.dtd"
   xmlns="http://www.w3.org/2000/svg"
   xmlns:svg="http://www.w3.org/2000/svg">
  <sodipodi:namedview
     id="namedview25"
     pagecolor="#ffffff"
     bordercolor="#666666"
     borderopacity="1.0"
     inkscape:pageshadow="2"
     inkscape:pageopacity="0.0"
     inkscape:pagecheckerboard="0"
     inkscape:document-units="mm"
     showgrid="false"
     inkscape:zoom="2.1736937"
     inkscape:cx="173.66753"
     inkscape:cy="115.70168"
     inkscape:window-width="1920"
     inkscape:window-height="1136"
     inkscape:window-x="0"
     inkscape:window-y="0"
     inkscape:window-maximized="1"
     inkscape:current-layer="layer1" />
  <defs
     id="defs20">
    <clipPath
       clipPathUnits="userSpaceOnUse"
       id="clipPath16">
      <path
         d="M 0,4500 H 4500 V 0 H 0 Z"
         id="path14" />
    </clipPath>
  </defs>
  <g
     inkscape:label="Layer 1"
     inkscape:groupmode="layer"
     id="layer1">
    <g
       aria-label=" ○━━┓
┃$ ɱ┃
┗━▶"
       id="text1239"
       style="font-size:10.5833px;line-height:1.25;font-family:'Noto Sans Mono';-inkscape-font-specification:'Noto Sans Mono, Normal';stroke-width:0.264583">
      <path
         d="m 8.8321265,4.8335833 q -0.634998,0 -1.164163,-0.317499 -0.529165,-0.3174989 -0.846664,-0.8466639 -0.317499,-0.529165 -0.317499,-1.164163 0,-0.6455813 0.317499,-1.1641629 0.317499,-0.52916503 0.846664,-0.84666402 0.529165,-0.31749898 1.164163,-0.31749898 0.6455812,0 1.1641629,0.31749898 0.5291646,0.31749899 0.8466636,0.84666402 0.317499,0.5185816 0.317499,1.1641629 0,0.634998 -0.317499,1.164163 -0.317499,0.529165 -0.8466636,0.8466639 -0.5185817,0.317499 -1.1641629,0.317499 z m 0,-0.4444985 q 0.5185816,0 0.9419136,-0.2539992 0.4339149,-0.2539992 0.6879149,-0.6773312 0.253999,-0.4339153 0.253999,-0.952497 0,-0.5185817 -0.253999,-0.9419137 -0.254,-0.4339152 -0.6879149,-0.68791443 -0.423332,-0.25399919 -0.9419136,-0.25399919 -0.5185817,0 -0.952497,0.25399919 -0.423332,0.25399923 -0.6773312,0.68791443 -0.2539992,0.423332 -0.2539992,0.9419137 0,0.5185817 0.2539992,0.952497 0.2539992,0.423332 0.6773312,0.6773312 0.4339153,0.2539992 0.952497,0.2539992 z"
         id="path3738" />
      <path
         d="M 11.9436,2.5475906 V 1.0447621 h 6.47698 v 1.5028285 z"
         id="path3740" />
      <path
         d="M 18.293564,2.5475906 V 1.0447621 h 6.476979 v 1.5028285 z"
         id="path3742" />
      <path
         d="M 28.633432,8.283739 H 27.130603 V 2.5475906 H 24.643528 V 1.0447621 h 3.989904 z"
         id="path3744" />
      <path
         d="M 1.7307485,8.5483215 H 3.2335771 V 21.512864 H 1.7307485 Z"
         id="path3746" />
      <path
         d="M 8.4405444,18.54954 Q 7.9113794,18.538956 7.4245476,18.45429 6.9482991,18.35904 6.6096335,18.200291 V 17.30071 q 0.3598322,0.169333 0.846664,0.296333 0.4974151,0.126999 0.9842469,0.137583 V 15.43805 Q 7.4774641,15.131134 6.9906323,14.697219 6.5038005,14.263303 6.5038005,13.458973 q 0,-0.793748 0.5185817,-1.269996 0.529165,-0.476249 1.4181622,-0.539749 v -0.772581 h 0.6773311 v 0.761998 q 0.529165,0.01058 0.9524975,0.127 0.423331,0.105833 0.80433,0.264582 l -0.285749,0.783164 Q 10.250289,12.675808 9.8798731,12.580559 9.5094576,12.474726 9.1178755,12.442976 v 2.285992 q 0.6773312,0.201083 1.1324135,0.433916 0.455081,0.222249 0.677331,0.582081 0.232832,0.349249 0.232832,0.920747 0,0.740831 -0.539748,1.238246 -0.529165,0.486832 -1.5028285,0.603248 v 1.015997 H 8.4405444 Z m 0,-6.085398 q -0.529165,0.04233 -0.7831642,0.317499 -0.2434159,0.264583 -0.2434159,0.677332 0,0.402165 0.2222493,0.645581 0.2222493,0.232832 0.8043308,0.391582 z m 0.6773311,5.217567 q 0.5926648,-0.07408 0.8572473,-0.338665 0.2751662,-0.275166 0.2751662,-0.698498 0,-0.402166 -0.243416,-0.603248 -0.2328329,-0.211666 -0.8889975,-0.380999 z"
         id="path3748" />
      <path
         d="m 22.971382,21.449364 q -0.201083,0 -0.359832,-0.04233 -0.148166,-0.03175 -0.264583,-0.07408 v -0.751414 q 0.0635,0.02117 0.179916,0.05292 0.127,0.04233 0.296333,0.04233 0.243416,0 0.380999,-0.148166 0.137583,-0.148166 0.137583,-0.497415 v -4.667236 q 0,-0.666747 -0.09525,-1.037163 -0.08467,-0.370415 -0.476249,-0.370415 -0.80433,0 -0.80433,2.11666 v 2.836324 h -0.846664 v -3.545406 q 0,-0.677331 -0.127,-1.037163 -0.116416,-0.370415 -0.507998,-0.370415 -0.423332,0 -0.592665,0.571498 -0.15875,0.571498 -0.15875,1.545162 v 2.836324 h -0.846664 v -5.672649 h 0.656165 l 0.137583,0.624415 h 0.05292 q 0.211666,-0.423332 0.465666,-0.571498 0.253999,-0.15875 0.582081,-0.15875 0.433915,0 0.666748,0.211666 0.243416,0.201083 0.370415,0.603248 h 0.03175 q 0.179916,-0.391582 0.444499,-0.603248 0.275166,-0.211666 0.719664,-0.211666 0.656165,0 0.910164,0.507999 0.264583,0.497415 0.264583,1.566328 v 4.762485 q 0,0.730247 -0.28575,1.100663 -0.275165,0.380999 -0.93133,0.380999 z"
         id="path3750" />
      <path
         d="m 27.130603,8.5483215 h 1.502829 V 21.512864 h -1.502829 z"
         id="path3752" />
      <path
         d="m 1.7307485,21.777446 h 1.5028286 v 5.725565 h 2.4870754 v 1.502829 h -3.989904 z"
         id="path3754" />
      <path
         d="M 5.5936368,29.00584 V 27.503011 H 12.070616 V 29.00584 Z"
         id="path3756" />
      <path
         d="m 15.266757,32.138496 v -6.19123 l 6.19123,3.100907 z"
         id="path3758" />
    </g>
  </g>
</svg>
