<?xml version="1.0" encoding="UTF-8" standalone="no"?>
<!DOCTYPE svg PUBLIC "-//W3C//DTD SVG 1.1//EN" "http://www.w3.org/Graphics/SVG/1.1/DTD/svg11.dtd">
<svg width="100%" height="100%" viewBox="0 0 1500 1500" version="1.1" xmlns="http://www.w3.org/2000/svg" xmlns:xlink="http://www.w3.org/1999/xlink" xml:space="preserve" xmlns:serif="http://www.serif.com/" style="fill-rule:evenodd;clip-rule:evenodd;stroke-linejoin:round;stroke-miterlimit:2;">
#    <g transform="matrix(0.967742,0,0,0.982962,48.3871,25.557)">
#        <rect x="-50" y="-26" width="1550" height="1526" style="fill:transparent"/>
#    </g>
    <g id="Layer2" transform="matrix(1,0,0,1,0,59)">
        <clipPath id="_clip1">
            <path d="M308,952.027C226.868,952.027 161,877.869 161,786.527C161,711.666 205.244,648.347 265.873,627.935C264.639,619.389 264,610.656 264,601.777C264,499.811 348.24,417.027 452,417.027C455.439,417.027 458.856,417.118 462.249,417.298C483.392,293.266 605.153,198.027 752,198.027C899.114,198.027 1021.05,293.612 1041.87,417.975C1048.16,417.348 1054.54,417.027 1061,417.027C1164.76,417.027 1249,499.811 1249,601.777C1249,612.325 1248.1,622.667 1246.37,632.733C1300.62,657.091 1339,716.803 1339,786.527C1339,877.869 1273.13,952.027 1192,952.027L308,952.027Z"/>
        </clipPath>
        <g clip-path="url(#_clip1)">
            <g transform="matrix(1,0,0,1,2,18)">
                <path d="M306,954.027C224.868,954.027 159,879.869 159,788.527C159,713.666 203.244,650.347 263.873,629.935C262.639,621.389 262,612.656 262,603.777C262,501.811 346.24,419.027 450,419.027C453.439,419.027 456.856,419.118 460.249,419.298C481.392,295.266 603.153,200.027 750,200.027C897.114,200.027 1019.05,295.612 1039.87,419.975C1046.16,419.348 1052.54,419.027 1059,419.027C1162.76,419.027 1247,501.811 1247,603.777C1247,614.325 1246.1,624.667 1244.37,634.733C1298.62,659.091 1337,718.803 1337,788.527C1337,879.869 1271.13,954.027 1190,954.027L306,954.027Z" style="fill:rgb(228,238,247);"/>
            </g>
            <g transform="matrix(0.997878,-0.0651119,0.0651119,0.997878,-101.353,79.3356)">
                <path d="M562.533,841.809C542.065,850.325 519.792,855 496.5,855C396.327,855 315,768.52 315,662C315,555.48 396.327,469 496.5,469C531.725,469 564.619,479.693 592.467,498.191C612.935,489.675 635.208,485 658.5,485C675.281,485 691.533,487.427 706.962,491.968C723.287,401.995 805.126,333.5 903.5,333.5C993.972,333.5 1070.46,391.433 1094.86,470.727C1183.53,483.398 1252,564.264 1252,662C1252,768.52 1170.67,855 1070.5,855C1053.01,855 1036.09,852.363 1020.08,847.443C986.859,886.468 938.852,911 885.5,911C831.155,911 782.356,885.547 749.081,845.25C722.417,861.626 691.48,871 658.5,871C623.275,871 590.381,860.307 562.533,841.809Z" style="fill:rgb(213,230,240);"/>
            </g>
            <g transform="matrix(0.999897,0.0143316,-0.0143316,0.999897,9.76827,4.26014)">
                <path d="M479.418,982.636C442.574,1006.19 397.783,1020 349.5,1020C223.939,1020 122,926.574 122,811.5C122,696.426 223.939,603 349.5,603C429.57,603 500.034,640.993 540.582,698.364C577.426,674.815 622.217,661 670.5,661C766.156,661 848.102,715.223 881.711,791.932C919.793,765.612 967.173,750 1018.5,750C1040.37,750 1061.52,752.833 1081.54,758.121C1107.29,668.872 1196.07,603 1301.5,603C1427.06,603 1529,696.426 1529,811.5C1529,926.574 1427.06,1020 1301.5,1020C1279.63,1020 1258.48,1017.17 1238.46,1011.88C1212.71,1101.13 1123.93,1167 1018.5,1167C922.844,1167 840.898,1112.78 807.289,1036.07C769.207,1062.39 721.827,1078 670.5,1078C590.43,1078 519.966,1040.01 479.418,982.636Z" style="fill:rgb(203,220,231);"/>
            </g>
        </g>
    </g>
    <g transform="matrix(1,0,0,1,0,59)">
        <g transform="matrix(1.01695,0,0,0.925183,-13.2203,102.953)">
            <path d="M957,510.221L957,1185.76L544,1185.76L544,511.221L750,717.221L957,510.221Z" style="fill:url(#_Linear2);"/>
        </g>
        <g transform="matrix(1.02364,0,0,1.02998,-18.9259,-19.1621)">
            <path d="M458.095,741.304L545,741.304L545,507.051L750,712.128L958,504.05L958,741L1044.24,741L1013.05,795.012L894,795.012L894,650.114L750.031,794.137L750,794.168L609,653.115L609,795.317L489.279,795.317L458.095,741.304Z"/>
        </g>
    </g>
    <defs>
        <linearGradient id="_Linear2" x1="0" y1="0" x2="1" y2="0" gradientUnits="userSpaceOnUse" gradientTransform="matrix(1,0,0,1,0,0.5)"><stop offset="0" style="stop-color:rgb(255,102,0);stop-opacity:0.66"/><stop offset="1" style="stop-color:rgb(255,102,0);stop-opacity:0.66"/></linearGradient>
    </defs>
</svg>